<svg width="289" height="302" viewBox="0 0 289 302" fill="none" xmlns="http://www.w3.org/2000/svg">
<g filter="url(#filter0_d)">
<path d="M108.802 280.258C93.6549 285.625 78.3612 288.104 62.0481 285.005C43.8654 281.549 28.0944 265.989 19.1832 250.471C15.8722 244.707 13.2363 238.267 13.5807 231.63C14.3822 216.298 28.8665 214.585 41.1614 217.065C48.0921 218.459 54.4559 221.634 60.7475 224.778C71.193 230.001 83.4458 232.57 92.8105 239.81C95.9529 242.246 98.3128 245.174 101.964 246.946C107.644 249.706 114.128 251.009 119.962 253.52C124.943 255.675 130.511 259.22 130.518 264.645C130.519 270.208 124.714 273.754 119.614 275.969C116.004 277.547 112.41 278.986 108.802 280.258Z" fill="url(#paint0_linear)"/>
<path d="M53.0501 82.4956C77.8631 45.9285 129.172 31.2462 170.761 44.9946C190.816 51.6276 207.623 65.4394 223.125 79.7773C236.789 92.4143 250.045 106.044 259.377 122.29C265.748 133.379 270.309 146.671 273.529 159.081C278.344 177.661 273.971 201.602 249.952 199.848C244.317 199.437 239.442 197.411 234.171 195.638C229.908 194.201 225.73 195.063 221.304 194.361C210.162 192.597 199.429 188.495 189.28 183.69C168.596 173.89 149.697 160.575 128.425 151.987C110.993 144.958 92.3767 141.329 73.5808 141.296C65.6512 141.283 57.3135 141.838 50.2203 138.292C32.7374 129.545 40.5993 105.958 47.1286 92.6903C48.8584 89.1561 50.8372 85.7492 53.0501 82.4956Z" fill="url(#paint1_linear)"/>
<path d="M247.597 88.015C251.682 91.7149 267.732 101.815 268.041 89.9624C268.114 87.0096 266.775 84.1425 264.952 81.98C262.867 79.4979 260.502 78.196 258.874 75.3042C256.881 71.8126 254.613 68.5311 252.099 65.502C246.959 59.1974 240.958 53.3722 233.676 50.7767C228.569 48.9585 219.922 49.4157 217.496 55.9612C213.962 65.4895 229.074 67.2354 233.683 70.7079C238.057 73.9947 240.534 79.6423 243.999 84.1307C245.094 85.546 246.298 86.8463 247.597 88.015Z" fill="url(#paint2_linear)"/>
<path d="M172.059 76.4252C180.712 81.5195 187.202 89.1448 195.091 95.286C208.225 105.509 226.228 107.6 241.29 114.71C256.648 121.963 268.245 133.236 273.488 149.483C280.262 170.455 280.906 195.395 275.151 216.955C268.813 240.687 253.929 256.451 232.168 266.964C210.419 277.471 186.326 282.374 162.296 283.386C159.977 283.485 157.662 283.539 155.338 283.554C103.135 283.857 33.6502 265.482 15.8773 209.404C15.7144 208.891 15.5583 208.379 15.4017 207.859C13.5704 201.611 12.4936 195.167 12.1944 188.663C11.0765 165.606 15.1118 140.157 23.1954 118.543C28.6323 103.991 40.3397 91.6869 52.6763 82.9199C70.009 70.6034 91.1575 67.4602 112.206 65.9824C127.793 64.8888 145.323 64.4892 160.063 70.4512C164.205 72.14 168.215 74.1369 172.059 76.4252Z" fill="url(#paint3_linear)"/>
</g>
<path d="M74.3902 111.76C74.3902 111.76 127.466 182.627 140.743 188.487C154.024 194.35 170.672 193.03 172.128 199.828C173.584 206.63 144.255 195.125 148.934 205.617C153.612 216.113 171.846 228.093 171.932 238.659C172.021 249.229 142.917 215.972 142.917 215.972C142.917 215.972 170.339 246.399 161.259 247.118C152.175 247.838 128.688 218.09 128.688 218.09C128.688 218.09 154.961 257.114 146.251 253.549C137.546 249.985 56.8046 156.617 44.3535 146.737C31.9025 136.861 74.3902 111.76 74.3902 111.76Z" fill="#E27B5A"/>
<path d="M228.787 128.962C228.787 128.962 168.251 193.554 154.407 197.919C140.563 202.281 124.163 199.139 121.966 205.734C119.773 212.331 150.187 204.128 144.382 214.045C138.581 223.958 119.143 233.857 117.894 244.353C116.65 254.845 149.228 224.997 149.228 224.997C149.228 224.997 118.628 252.219 127.574 253.933C136.525 255.65 163.138 228.669 163.138 228.669C163.138 228.669 132.735 264.566 141.781 261.981C150.828 259.396 241.338 175.485 254.797 167.036C268.259 158.588 228.787 128.962 228.787 128.962Z" fill="#FFCEB0"/>
<path d="M177.25 173.812C177.25 173.812 195.869 209.069 212.985 212.82C230.099 216.571 267.071 183.104 275.138 166.527C283.208 149.953 243.877 99.7967 235.46 92.5826C223.301 91.0982 168.618 142.385 177.25 173.812Z" fill="#FB4C47"/>
<path d="M61.721 77.5534C61.721 77.5534 122.959 137.906 120.057 153.577C117.159 169.251 93.7756 188.026 74.917 194.174C56.0585 200.32 14.8298 175.563 14.8298 157.51C11.8234 126.85 27.4547 94.9875 61.721 77.5534Z" fill="#128E5A"/>
<defs>
<filter id="filter0_d" x="0.918457" y="31.6726" width="288" height="269.938" filterUnits="userSpaceOnUse" color-interpolation-filters="sRGB">
<feFlood flood-opacity="0" result="BackgroundImageFix"/>
<feColorMatrix in="SourceAlpha" type="matrix" values="0 0 0 0 0 0 0 0 0 0 0 0 0 0 0 0 0 0 127 0"/>
<feOffset dy="4"/>
<feGaussianBlur stdDeviation="2"/>
<feColorMatrix type="matrix" values="0 0 0 0 0 0 0 0 0 0 0 0 0 0 0 0 0 0 0.25 0"/>
<feBlend mode="normal" in2="BackgroundImageFix" result="effect1_dropShadow"/>
<feBlend mode="normal" in="SourceGraphic" in2="effect1_dropShadow" result="shape"/>
</filter>
<linearGradient id="paint0_linear" x1="12.2362" y1="233.746" x2="27.9514" y2="288.313" gradientUnits="userSpaceOnUse">
<stop stop-color="#FFD0D0"/>
<stop offset="1" stop-color="#FFF8F8"/>
</linearGradient>
<linearGradient id="paint1_linear" x1="305.772" y1="87.8221" x2="129.881" y2="47.2066" gradientUnits="userSpaceOnUse">
<stop stop-color="#FFF8F8"/>
<stop offset="1" stop-color="#FFD0D0"/>
</linearGradient>
<linearGradient id="paint2_linear" x1="268.458" y1="89.7546" x2="208.112" y2="63.9798" gradientUnits="userSpaceOnUse">
<stop stop-color="#FFD0D0"/>
<stop offset="1" stop-color="#FFF7F7"/>
</linearGradient>
<linearGradient id="paint3_linear" x1="254.838" y1="259.726" x2="12.2439" y2="119.24" gradientUnits="userSpaceOnUse">
<stop stop-color="#FFCFCF"/>
<stop offset="1" stop-color="#FFF8F8"/>
</linearGradient>
</defs>
</svg>
